<?xml version="1.0" encoding="utf-8"?>
<!-- Generator: Adobe Illustrator 22.1.0, SVG Export Plug-In . SVG Version: 6.00 Build 0)  -->
<svg version="1.1" id="Layer_1" xmlns="http://www.w3.org/2000/svg" xmlns:xlink="http://www.w3.org/1999/xlink" x="0px" y="0px"
	 viewBox="0 0 300 500" style="enable-background:new 0 0 300 500;" xml:space="preserve">
<style type="text/css">
	.st0{fill:none;stroke:#ff5a5f;stroke-miterlimit:10; stroke-width: 3px;}
</style>
<g>
	<polyline class="st0" points="75.3,151.9 72.2,151.3 70.6,150.3 	"/>
	<path class="st0" d="M73.8,151.6l0.3-1.5l2.5-0.6l0-2l2.3,0l0,1.2l1.3,0l-0.6-1.2l1.1,0l2.6,1.3l-0.6,0.6l3.9,3.8l0.6,0.6l1.3-1.3
		l1.9,1.9l0.6,0.6l-0.6,1.3l2.6,2.6l0,0.6l2.6,1.3l1.3-0.7l3.3,0l1.8,0.6l1.8,0.6l1.8,1.2l3.7,4.3l1.2,0.6l0,0.6l14.7,11.6l9.2,5.5
		l1.2-1.2l3.7,0.6l0.6,0l0,0l1.2,0l0-0.2l3.5,1.2l3.7,3.1c0,0,1.9,4.3,3.7,2.4c1.8-1.9,3.1-3.1,2.4-4.3s-0.6-1.2,0.6-2.5
		c1.2-1.2,1.2-1.2,1.2-1.2l-0.6-1.2l1.2-0.6l0.6-1.2l1.8-2.5l2.5-3.1l4.9-1.6l3.7,0l2.5,1.6l3.1,3.1l5,4.3l1.9,1.2l1.9,1.5l4.3,0
		l5.3,0"/>
	<path class="st0" d="M195.2,186l-10.5-0.1c0,0-1.8,2.5,0,3.7c1.9,1.2,1.9,1.8,1.9,1.8l-3.1,1.9l-1.8,2.5c0,0-0.6,0.6-1.2,0
		c-0.6-0.6-1.2-0.6-1.2-0.6s0-0.6-0.6-0.6s-3.1-3.1-3.1-3.1l0.6-6.2c0,0-5.6-10.5-6.9-9.8c-1.2,0.6-1.9,0-2.5,1.3s-1.8,3.1-1.8,3.1
		l-1.2,1.9l1.2,1.2l-3.1,3.7l-0.6,4.3c-1.8,1.9-3.1,2.5-3.7,4.3s1.3,2.5,1.3,2.5l0,0.7l-1.2,0l0,1.2l1.2,0l0,6.2l1.8,3.1l0.6,0
		l0,3.1l-1.2-1.2l-1.2,0.6l-1.2-1.2l3,3.7l-1.7,2.5l-3.5,3.1l0,1.1l-1.3,1.2l-0.6-1.2l-0.5,0.6l0,2.5l-2.3,0.6l0-2.4l-3.5,0l0,3.1
		l-2.4-3.7l0-3.7l-0.6-0.6l0.6-4.9l1.2-0.6l0-0.8l-1.3-0.6l0.6-5.7l-4.4-10.1l-2.5-3.8l-2.5,0l-4.4-4.4l-15-10.7l-3.7,0l-5.6-5
		l0-1.9l-2.7-3.6l-3.2,0l0,2.3l-1.2,0l0-2.3l-1.2,0l0,4.7l-8.2,0.1l0-5.9l5.7,0l-5.6-0.6l-3.7-3.7l-5-3.7l-7.4-0.6l-3.1-2.5"/>
	<path class="st0" d="M224.8,198"/>
	<path class="st0" d="M228.2,199.8"/>
	<line class="st0" x1="98.9" y1="165.5" x2="98.8" y2="159.6"/>
	<line class="st0" x1="131.8" y1="185.1" x2="131.8" y2="182.8"/>
	<line class="st0" x1="136.5" y1="183.9" x2="136.5" y2="189.8"/>
	<line class="st0" x1="166.8" y1="173.2" x2="166.9" y2="175.6"/>
	<line class="st0" x1="170.6" y1="172.9" x2="168.7" y2="175.4"/>
	<line class="st0" x1="176.4" y1="193.1" x2="183" y2="193.3"/>
	<line class="st0" x1="190.3" y1="184.8" x2="190.4" y2="185.9"/>
	<path class="st0" d="M144.3,367.6l1.8-1.2l-1.3-6.1l-1.8-0.6l0.6-1.8l3.4,0l-0.6-2.3l-3.7,0l-2.8-8.1l0-1.8l-2.5-3.7l1.2-9.8
		l-1.2-1.2l-0.6,1.8c0,0-1.8,1.8-3.7,0c-1.8-1.8-1.8-1.8-1.8-1.8l-3.1,0l4.3,4.3c0,0-0.6,1.8,0.6,4.3c1.2,2.4,2.5,4.9,2.5,4.9
		l-3,2.5l0.6,1.8l-0.6,5.5c0,0-1.8-0.6,1.2,2.4c3.1,3,4.9,4.9,6.1,3.6c1.2-1.2,1.2,0,1.2,0L144.3,367.6z"/>
	<path class="st0" d="M137.8,355.5c0,0-0.7-6.2-1.9-4.9s-1.2,3.7-1.2,3.7l0.6,1.8c0,0,1.3,2.5,2.5,1.8c1.2-0.6,2.5-1.3,2.5-1.3
		l-0.6-1.2L137.8,355.5z"/>
	<path class="st0" d="M136.6,132.4c0,0,3.1,3.1,3.1,4.3c0,1.2,0,1.9,0,1.9l3.7,0.6c0,0,3.7-3.1,4.9-3.7c1.2-0.6,6.7-9.3,6.7-9.3
		l4.3-0.6c0,0-3.1-1.8-1.9-3.7s0-1.9,0-1.9s-0.6-1.2-1.9-0.6s-1.2,1.2-2.5,0c-1.2-1.2-1.2,0-2.5-1.8c-1.2-1.8-1.3-4.3-3.1-3.7
		c-1.8,0.6-2.5,2.5-2.4,3.7c0,1.2,1.9,2.5,0,3.1c-1.8,0.6-1.8,0.6-3.1,1.3c-1.2,0.6-0.6,1.2-1.8,0.6c-1.2-0.6,0-1.2-1.2,0
		c-1.2,1.2-2.4,7.4-2.4,7.4s1.2,0,0,0.6C135.3,131.2,136.6,132.4,136.6,132.4z"/>
	<line class="st0" x1="237.3" y1="479" x2="266.6" y2="478.8"/>
	<path class="st0" d="M262.3,450.7l2.6,0l-1.9,7l4,0l0-2.3l-0.7,0c0-0.1-0.6-1.3-0.6-1.9c0-0.6,0.6-1.2,0.6-1.2l-1.6-5.6l0-2.5
		l14,0.5l-4.3-3.7l-4.9-0.6l-2.5-0.6l-2.5-0.9l-1.2,0c0,0-1.9-2.2-5-5.3c-3.1-3.1-2.5-4.9-2.5-4.9l-7.4-4.9l-0.6,0l-0.6-1.2
		l-1.2,0.6l-1.9-3.1l1.8-2.5c0,0,0,0,1.9,0.6c1.9,0.6,0,0,0.6-1.9c0.6-1.9-0.7-6.8-1.3-8c-0.6-1.2-3.1-0.6-2.5-1.8
		c0.6-1.2,0-0.6-0.6-3.7c-0.6-3.1-1.3-6.2,0-7.4c1.2-1.2,2.4-3.7,2.4-6.8c0-3.1-1.2-1.8,0.6-3.1s3.7-6.2,4.3-6.8
		c0.6-0.6,0-1.9,0-1.9s-0.6-2.5,0.6-4.9c1.2-2.5,0-1.2,3.1-1.3s8-3.1,9.2-4.4c1.2-1.2,1.8-3.7,1.8-3.7l-0.5-4.3l0-5.6
		c0,0-4.5-4.9-4.5-5.5c0-0.6-1.9-2.5-1.9-2.5l-4.3,1.3c0,0-1.8,1.9-1.2,5c0.6,3.1,1.3,3.7,1.4,5.6l0,2.5c-0.1,0,0.5,0.6,1.1,2.5
		c0.6,1.8-1.8,1.2-3.7,1.9c-1.8,0.6-1.2,2.5-1.2,3.1l-1.9,0c0-0.7-1.3-3.7-1.3-4.4c0-0.6-0.6-0.6-1.2-1.8c-0.6-1.2-0.6-0.6,0-3.7
		c0.6-3.1-0.6-1.2-1.9-3.7l-0.6-1.2c0,0-0.6-1.8-1.3-4.3c-0.6-2.5,0-1.9-1.9-0.6c-1.8,1.2-1.9-0.6-3.1-3.1c-1.3-2.5-1.2-1.2,0-1.9
		c1.2-0.6,1.2-1.9,1.2-1.9s-1.2-1.2-1.3-3.1c0-1.9,0-0.6-3.1-1.8c-2.1-0.8-2.2-0.5-2.1-0.2c-0.5-0.7-2-2.6-3.5-4
		c-1.9-1.8-2.5-1.2-2.5-1.2l-0.6-1.8c0,0-0.6-0.6-1.2,1.9c-0.6,2.5-1.8,1.2-2.5,0c-0.6-1.2-0.6-2.5-0.6-4.9c0-2.5-1.9-4.3-1.9-4.3
		s-3.2-10.5-3.8-11.7c-0.6-1.2-1.9-1.2-3.1-3.7c-1.3-2.5,1.2-3.1,1.8-3.7c0.6-0.6,0-2.5,0.6-5.6c0.6-3.1-0.6-3.1-0.6-3.1
		s-0.6-0.6-1.9-3.1s0-1.2,0.6-3.7c0.6-2.5,0-1.9,0.6-4.9c0.6-3.1,0-3.1,0-3.7c0-0.6,1.8-5.6,3-7.4c1.2-1.9,1.2-1.9,0.6-4.9
		c-0.6-3.1,1.2-7.4,1.8-12.4s0-1.2,0.6-3.1c0.6-1.9,1.8-6.2,1.8-8c0-1.9,0.6-6.2-1.3-8c-1.9-1.8-1.2-1.2-1.9-4.3
		c-0.6-3.1,0.6-3.1,1.8-5.6c1.2-2.5,1.8-1.9,2.4-3.7s2.5-3.1,2.5-3.1l0.6-4.3c0,0,1.2-0.6,1.2-1.9c0-1.2-0.6-1.8-0.6-1.8l-0.6-1.8
		l1.2-3.9l-1.4,0l0-2.1c-0.2-0.4-0.6-0.9-0.7-1.4c-0.1-0.5-0.2-0.9-0.2-1.4c0-0.4,0-0.7,0.2-1.1c0.1-0.4,0.3-0.8,0.6-1.1l-1-2
		c0,0-3.7-0.6-4.3,0.6c-0.6,1.2,0,0-3.1-0.6c-3.1-0.6-1.2,0-1.9-0.6s0-2.5-1.9-3.7c-1.9-1.2-0.6,0.6-0.6,2.5c0,1.9-0.6,0-1.8,1.2
		s-1.9,0-1.9,0l4.3-5.6c0,0-1.8,0.6-2.5,0.6s-2.5-3.1-2.5-2.5s-2.5,1.3-4.3,1.9c-1.8,0.6-0.6,0,0,1.2s1.9,0.6,1.2,1.2
		s-1.2,2.5-1.2,2.5l2.5,1.8l-3.1-0.6l1.9,1.8l-1.2,0.2l-2.5,0l0.6-1.2l-1.2-0.6l1.2-0.6c0,0,0.6-1.2,0.6-1.9s0-3.1-1.2-2.5
		c-0.3,0.2-0.5,0.2-0.6,0.3l0,2.2l-1.2,0.6l-1.2-0.6c0,0-0.6,0,0-1.9s1.7-1.9,2.9-2.5c1.2-0.6,0.6,0,1.2-0.6c0.6-0.6,0-0.6,0-0.6
		s-0.6-0.6-1.2,0s-4.7,1.3-4.7,1.3L195,186l0-1.8l2.3,0l0-1.5l1-4.4l1.2,0l1.2-3.5l1.3,0l0.6-1.2l-2.5,0l-1.7,2.9l-1.8-1.2l1.2-1.8
		l1.2-2.9l1.8,1.7l0-1.2l1.3,0c0,0,0.6,0,0,0.6c-0.6,0.6-1.8,1.3-0.6,1.2c1.2,0,3.1,0,4.3-0.6c1.2-0.6,3.1-1.9,3.7-1.9
		c0.6,0,2.5-0.6,1.8-1.3c-0.6-0.6-1.2,0-1.2-1.9c0-1.9,0-0.6,1.2-0.6c1.2,0,0.6,0.6,1.2,1.2s0,0.6,0,1.9c0,1.2,0.6,0.6,2.5,1.2
		c1.8,0.6,0.6-0.6,2.5,0.6s2.5,0.6,1.9,1.8c-0.6,1.2,0-0.6,0.6,2.5c0.6,3.1,0.6,0.6,1.2,1.2c0.6,0.6,0,0.6,0.6,1.9
		c0.6,1.2,1.2,0.6,1.2,2.5c0,1.9,1.9,3.1,3.7,1.2c1.8-1.9,0.6-2.5,0.6-2.5s-3.1-4.9-1.3-6.2c1.8-1.3,1.8-0.6,3.1-1.9
		c1.2-1.2,0-1.9,2.4-3.7s1.8-0.6,3.7-2.5s1.8-6.8,1.8-9.3c0-2.5,0.6-4.3,1.8-5s4.9-1.3,6.8-2.5c1.8-1.3,9.8-10,9.8-10
		s0.6-1.2,1.2-3.7c0.6-2.5,2.4-2.5,2.4-2.5l0-3.7c0,0,0.6,0.6,1.2-0.6c0.6-1.2,4.3-8.7,4.2-11.2s-3.7-5.6-3.7-5.6l-9.3-4.3
		c0,0-1.2,0-3.1,0.6c-1.8,0.6-6.2,0-6.2,0s-0.6-2.5-2.5-3.1c-1.8-0.6-3.1-3.7-3.1-3.7l-5.6-5.5l0.6-0.6c0,0-0.6-0.6-1.2-1.9
		c-0.6-1.2-0.6-1.9,0-4.3c0.6-2.5-0.7-6.8-1.3-9.3c-0.6-2.5-2.5-2.5-1.9-4.3c0.6-1.9-0.6-4.3-0.6-4.3s-1.3-4.9-1.9-6.8
		c-0.6-1.9,0.6-1.9,0.6-1.9l-3.2-13c0,0-0.6-1.2-2.5-2.5s-0.6-3.7,0.6-9.9l-2.5-8c0,0,0,0,0.6-1.2c0.6-1.2,0-2.5,0-2.5l-2.5-3.1
		l-2.5-1.2L99.7,21.4c0,0,0,0,0.6,1.2c0.6,1.2,1.3,4.9,1.9,8.7s-1.2,6.8-3,11.8s-0.6,6.8-0.6,9.3c0,2.5-1.2,5-3.6,8.7
		c-2.4,3.7-1.2,4.3-1.2,7.4c0,3.1-3,5-6.1,8.7c-3.1,3.7-19,10.7-22.7,14.4l-0.6,0.6c0,0-0.6,3.7-1.8,3.7c-1.2,0-0.6,1.2-1.8,3.1
		l4.4,6.8l-1.8,7.4l1.2,0.6l0,4.4l-2.6,4.7l-0.7,0l-2.6,5.9l0,1.2l-3.5,0l0,1.7l2.4,1.8l0,1.9l1.2,0.6l0.6,1.2l-0.6,0.6l1.8,1.2
		c0,0,0.6,0.6,0.6,1.8s0,0.6,1.2,3.7c1.2,3,1.8,2.4,1.8,2.4l7.4,3.6l0,2.3l-3-0.6l-2.4-1.8l-6.1-0.6l-1.8-1.2l0.6-3.7
		c0,0,0-3.7-1.2-4.3c-1.2-0.6-3-0.6-4.9,0s-4.3,0.6-4.9,1.2l-3,3.1c-0.6,0.6-5.5,3.1-6.1,4.3c-0.6,1.2-1.2,2.4-2.4,3.1
		c-1.2,0.6-3.6,2.5-3.6,2.5s-0.6,1.2-6.1,2.5c-5.5,1.3-1.8,1.8-1.8,1.8l10.4,6c0,0,0.6,1.2,3.7,4.8c1.1,1.3,1.4,1.8,1.4,1.8
		c1.3,1.1,2.9,2.7,2.9,3.1c0,0.6,0.6,1.8,0.6,1.8l1.2,2.4c1.9,3.6,1.9,6.7,1.9,6.7s-0.6,0-0.6,1.2s-0.6,6.1,0.1,7.9
		c0.6,1.8,6.7,7.9,9.2,10.3s9.8,5.4,11,6.6s7.9,3.6,7.9,3.6s0,1.2,4.9,2.4l4.2-2.5l3.6-0.6l0-2l2.3,0l0.1,12.9l1.2,0L91,215.3l2.3,0
		l0.1,9.4l1.2,0l-0.1-11l-0.6-1.9l1.3,0l1.3,1.9l0.7,10c0,0,5.7,2.5,8.2,3.1s5.7,5.6,6.9,7.5c1.3,1.9,3.2,2.5,4.4,3.1
		c1.3,0.6,2.5,3.1,2.5,3.1l7.6,6.2l-3.3,0l0.6,0l3.1,0l0.6,1.2l-2.5,0l0.6,1.2l3.9,0l0.6,1.2l-1.8,0.6l1.2,0.6l2.3,0l-1.2,0.6
		l5.3,4.7l-1.8-1.7l0.6-0.6l4.1,2.3l-1.8,0.6l0.6,1.2l1.8-0.6l0.6,1.2l0,2.3l6.1,4.6l-1.3,0.6l0,1.2l2-0.6l-0.7,1.8l-0.7,0l0.7,2.3
		l3,0l0.6,1.8l-0.6,0.6l-4.4,0l0,1.2l3.5,0l0,1.2l-3.8,0l-3.7,16.4l6.4,0l0,1.2l-6,0l1.2,0.8l-1.2,1.5l0.2,0l0.1,15.8l3.5,3.1l0,1.9
		l-3.5-1.2l0.1,9.3l-2,4l-1.5,0l0.6-3.1l-0.6-1.2l-0.2-31.8l-4.7,3.8l0,1.9l-5.8,1.3l-4.7,0l0,3.5l2.3,0l0,1.4l-2.3,1.3l0.1,14.8
		l-1.2,1.2l2.5,2.5l0.6-0.6l5.6,6.4l-3.1,0l-1.9-2.7l-3.1-3.1l-4.1,0l-0.1-15.2l-1.2,0l0-2.3l-5-0.6l0.6-0.6l-3.7-0.6
		c0,0-3.1,4.1-3.1,3.5c0-0.6-2.5-0.6-4.4-3.5s-1.2-1.2-2.5-2.9c-1.2-1.7-0.6,0-1.2-1.2L95,299c0,0,0-1.8-1.3-2.3
		c-1.2-0.6-1.2-1.7-1.2-1.7l-0.6-4.7l-1.9-1.2c0,0,0-2.9-2.5-2.9s-6.8,2.4-6.8,3.6c0,1.2-12.3,16.5-14.1,18.2s-10.5,6.5-10.5,6.5
		s-13,4.2-13.6,5.4c-0.6,1.2,0,2.3,0,2.3l12.4,8.1l-1.9,0l0,1.2l2.9,0c0,0,0,0,1.2,1.2c1.2,1.2,0,1.8,0,1.8s-0.6,2.5,1.8,4.9
		c2.4,2.4,1.2,0.6,2.4,4.9c1.2,4.3,1.2,2.4,2.4,3.7s3,6.1,4.2,8.6c1.2,2.4,1.2,3.1,1.2,4.9c0,1.8,1.2,2.4,1.2,2.4s2.4,8.6,0.6,9.8
		c-1.7,1.2-0.6,4.9-0.6,4.9l3,5.5l-0.6,3.7c0,0-1.2,0,0,1.8c1.2,1.8,0,1.8,0,2.5c0,0.6,1.8,1.8,1.8,4.3c0,2.5-0.6,2.5-4.6,7.4
		c-4.1,4.9-2.3,1.9-1.7,3.7c0.6,1.8,4.1,3,6.5,5.5c2.4,2.4,2.4,3.1,2.4,3.1l0,3.1l-3.5,0l0,1.2l3.7,0c0,0,0,2.5-1.8,5
		s-3.7,4.4-4.3,5.6c-0.6,1.2-0.6,0.6,1.3,2.5c1.9,1.8,1.9,1.2,3.1,4.9c1.3,3.7,0.6,3.7,2.5,5.6c1.9,1.8,0.6,1.2,1.9,4.3
		s1.9,2.5,3.8,5.6c1.9,3.1,3.1,4.9,3.1,5.6c0,0.6,3.1,2.5,5,3.1s4.4,3.1,5.6,4.3s1.3,1.9,3.1,3.7l1.8-3.1l1.2-5.6
		c0,0,2.5-3.7,3.7-5.6s0-5.6,0-7.4c0-1.9-0.7-18-0.7-18l14-0.1l0,3.5l2.3,0l0-3.5l24.6-0.2l1.2,5.8l5.7,0l0.6-1.8l2.4-0.6l1.2,2.4
		l3.7,0l-1.3-4.3l-1.2-1.8l-1.9-6.7l7,0l0,4.7l8.8-0.6l-0.6-6.4l11.1-0.1l1.7-1.2l-1.2-0.6c0,0,0-1.2,0-1.9c0-0.6-2.4-4.3-2.4-4.3
		l-7.1-3.7l0-1.1l-1.2,0l0-3.3c0,0-8.4-6.1-9-6.7c-0.6-0.6-0.6-1.2-0.6-1.2l-7.5-7.4l-3.1,0.1l1.9,0l-1.3-2.3l-1.2,0l-5-6.3
		l-0.2-3.1l0-1.2l0.8-1.2l1.2,0.6l2.5-1.9l-1.2,4.3c0,0-0.6,0.6,0,2.5c0.6,1.8,1.9,1.2,1.9,1.2l1.2,0.6c0,0,0.6,0,1.8-0.6
		c1.2-0.6,1.9,0,1.9,0l0.6,1.8l-3.1,0.6l3.7,3.7l2.5,0.6l-0.6,1.2l7.5,7.4c0,0,0,0.6,2.5-0.6s1.2-3.7,1.2-3.7l1.5,0.6l0,2.2l-3,3.7
		l4.9,4.3l14.1-0.7c0,0-0.6,0.6,0.6,1.2c1.2,0.6,4.9,4.9,4.9,4.9s1.3,4.9,1.3,6.2s-1.8,1.9-1.8,1.9l14.7-0.1c0,0,0,0-1.2,1.2
		c-1.2,1.2-0.4,26-0.4,26l7.3-0.7l9.2,0.6l0.6,3.7c0,0,0,0.6,1.2,1.2c1.2,0.6,3.1,1.2,3.1,1.2l0-5.3l6.7,0l-0.6,15.2l-1.3,0l0,2.3
		l1.3,0l-1.2,4l0.6,0.7l-0.6,4.7l15.2,0.6l-0.1-12.7l-1.3-2l11.9-0.1l1.9,6.2l10.9-0.7l0-4.5l-10.5,0.1L262.3,450.7z"/>
	<path class="st0" d="M214.7,125.7"/>
</g>
</svg>
