<?xml version="1.0" encoding="utf-8"?>
<!-- Generator: Adobe Illustrator 21.1.0, SVG Export Plug-In . SVG Version: 6.00 Build 0)  -->
<svg version="1.1" id="Layer_1" xmlns="http://www.w3.org/2000/svg" xmlns:xlink="http://www.w3.org/1999/xlink" x="0px" y="0px"
	 viewBox="0 0 100 100" style="enable-background:new 0 0 100 100;" xml:space="preserve">
<style type="text/css">
	.st0{fill:none;stroke:#F15C61;stroke-width:3;stroke-miterlimit:10;}
	.st1{fill:none;stroke:#000000;stroke-miterlimit:10;}
	.st2{fill:#F15C61;}
</style>
<path class="st0" d="M55.5,65.5h-23c-2.2,0-4-1.8-4-4v-23c0-2.2,1.8-4,4-4h23c2.2,0,4,1.8,4,4v23C59.5,63.7,57.7,65.5,55.5,65.5z"/>
<rect x="44.5" y="43.5" class="st1" width="0" height="14"/>
<polygon class="st1" points="51.5,50.5 37.5,50.5 37.5,50.5 51.5,50.5 "/>
<path class="st1" d="M14.5,45.5"/>
<g>
	<g>
		<path class="st2" d="M42.4,43.8c0,4.3,0,8.7,0,13c0,1.9,3,1.9,3,0c0-4.3,0-8.7,0-13C45.4,41.8,42.4,41.8,42.4,43.8L42.4,43.8z"/>
	</g>
</g>
<g>
	<g>
		<path class="st2" d="M37.2,51.4c4.7,0.2,9.4,0,14,0c1.9,0,1.9-3,0-3c-4.7-0.1-9.4,0.2-14,0C35.3,48.3,35.3,51.3,37.2,51.4
			L37.2,51.4z"/>
	</g>
</g>
</svg>