<?xml version="1.0" encoding="utf-8"?>
<!-- Generator: Adobe Illustrator 21.1.0, SVG Export Plug-In . SVG Version: 6.00 Build 0)  -->
<svg version="1.1" id="Layer_1" xmlns="http://www.w3.org/2000/svg" xmlns:xlink="http://www.w3.org/1999/xlink" x="0px" y="0px"
	 viewBox="0 0 100 100" style="enable-background:new 0 0 100 100;" xml:space="preserve">
<style type="text/css">
	.st0{fill:#F15C61;}
	.st1{fill:none;}
</style>
<path class="st0" d="M29,46h-6c-2.8,0-5-2.2-5-5V22c0-2.8,2.2-5,5-5h6c2.8,0,5,2.2,5,5v19C34,43.8,31.8,46,29,46z"/>
<path class="st0" d="M28.3,45h44.3c3.7,0,5.4-4.5,2.7-7L53.2,17.9c-1.5-1.4-3.9-1.4-5.4,0L25.6,38C22.9,40.5,24.7,45,28.3,45z"/>
<path class="st0" d="M32.1,84H19.9c-1.1,0-1.9-0.9-1.9-1.9V37.9c0-1.1,0.9-1.9,1.9-1.9h12.1c1.1,0,1.9,0.9,1.9,1.9v44.1
	C34,83.1,33.1,84,32.1,84z"/>
<path class="st0" d="M75.1,39h-6.1c-3.3,0-5.9,2.7-5.9,5.9v37.1c0,1.1,0.9,1.9,1.9,1.9h10.1c1.1,0,1.9-0.9,1.9-1.9V40.9
	C77,39.9,76.1,39,75.1,39z"/>
<rect x="18" y="36" class="st0" width="55" height="14"/>
<path class="st1" d="M59,84H38c-2.2,0-4-1.8-4-4V54c0-2.2,1.8-4,4-4h21c2.2,0,4,1.8,4,4v26C63,82.2,61.2,84,59,84z"/>
<circle class="st0" cx="58" cy="67" r="3"/>
</svg>