<?xml version="1.0" encoding="iso-8859-1"?>
<!-- Generator: Adobe Illustrator 19.0.0, SVG Export Plug-In . SVG Version: 6.00 Build 0)  -->
<svg version="1.1" id="Capa_1" xmlns="http://www.w3.org/2000/svg" xmlns:xlink="http://www.w3.org/1999/xlink" x="0px" y="0px"
	 viewBox="0 0 512.001 512.001" style="enable-background:new 0 0 512.001 512.001;" xml:space="preserve">
<g>
	<g>
		<path fill="white" d="M367.018,121.336h-25.055l1.49-7.975h8.863c4.199,0,7.604-3.405,7.604-7.604s-3.405-7.604-7.604-7.604H339.01
			l-13.209-6.915c-9.75-5.105-20.157-8.91-30.872-11.361c-4.797-5.206-7.122-10.028-6.728-14.024
			c0.483-4.881,4.982-7.951,4.978-7.951c2.935-1.754,4.259-5.204,3.35-8.501c-0.91-3.297-3.99-5.532-7.41-5.532h-66.237
			c-3.421,0-6.537,2.21-7.448,5.507s0.375,6.722,3.311,8.477c0.046,0.03,4.57,3.104,5.054,8c0.394,3.996-1.931,8.818-6.728,14.024
			c-10.716,2.451-21.122,6.257-30.872,11.361l-13.209,6.914h-13.308c-4.199,0-7.604,3.405-7.604,7.604s3.405,7.604,7.604,7.604
			h8.864l1.49,7.975h-25.056c-4.199,0-7.604,3.405-7.604,7.604s3.405,7.604,7.604,7.604h27.898l1.801,9.631h-1.541
			c-4.199,0-7.604,3.405-7.604,7.604s3.405,7.604,7.604,7.604h165.721c4.199,0,7.604-3.405,7.604-7.604s-3.405-7.604-7.604-7.604
			h-1.541l1.801-9.631h27.897c4.199,0,7.604-3.405,7.604-7.604S371.218,121.336,367.018,121.336z M238.903,64.054
			c-0.199-1.784-0.58-3.443-1.088-4.977h36.372c-0.508,1.534-0.888,3.193-1.088,4.977c-0.475,4.266,0.169,8.567,1.897,12.876
			c-2.866-0.195-5.738-0.303-8.613-0.303h-20.766c-2.874,0-5.747,0.108-8.613,0.303C238.733,72.621,239.378,68.32,238.903,64.054z
			 M245.618,91.835h20.766c12.647,0,25.264,2.165,37.195,6.318h-95.155C220.354,93.998,232.971,91.835,245.618,91.835z
			 M326.493,121.336h-88.232c-4.199,0-7.604,3.405-7.604,7.604c0,4.199,3.405,7.604,7.604,7.604h85.389l-1.802,9.631H190.153
			l-1.801-9.631h24.559c4.199,0,7.604-3.405,7.604-7.604c0-4.199-3.405-7.604-7.604-7.604H185.51l-1.49-7.975h143.964
			L326.493,121.336z"/>
	</g>
</g>
<g>
	<g>
		<path fill="white" d="M256.001,0c-4.199,0-7.604,3.405-7.604,7.604v23.591c0,4.199,3.405,7.604,7.604,7.604c4.199,0,7.604-3.405,7.604-7.604
			V7.604C263.604,3.405,260.2,0,256.001,0z"/>
	</g>
</g>
<g>
	<g>
		<path fill="white" d="M256.001,432.178c-4.199,0-7.604,3.405-7.604,7.604v64.614c0,4.199,3.405,7.604,7.604,7.604
			c4.199,0,7.604-3.405,7.604-7.604v-64.614C263.604,435.582,260.2,432.178,256.001,432.178z"/>
	</g>
</g>
<g>
	<g>
		<path fill="white" d="M302.352,165.35c-4.089-0.963-8.182,1.57-9.144,5.659l-14.944,63.489c-2.251,9.569-4.203,19.325-5.801,28.994
			c-0.685,4.144,2.118,8.057,6.262,8.743c0.421,0.07,0.837,0.103,1.25,0.103c3.654,0,6.877-2.641,7.492-6.364
			c1.543-9.336,3.428-18.753,5.601-27.992l14.944-63.488C308.975,170.406,306.44,166.312,302.352,165.35z"/>
	</g>
</g>
<g>
	<g>
		<path fill="white" d="M299.931,503.009L285.19,387.175c-4.063-31.936-4.424-64.355-1.075-96.358c0.437-4.177-2.594-7.917-6.772-8.354
			c-4.18-0.428-7.917,2.595-8.354,6.772c-3.471,33.166-3.097,66.765,1.114,99.861l14.742,115.834
			c0.489,3.841,3.761,6.645,7.534,6.645c0.319,0,0.644-0.02,0.969-0.062C297.514,510.982,300.461,507.175,299.931,503.009z"/>
	</g>
</g>
<g>
	<g>
		<path fill="white" d="M233.736,234.499l-14.944-63.49c-0.962-4.088-5.055-6.623-9.144-5.659c-4.088,0.962-6.622,5.056-5.659,9.144
			l14.944,63.487c11.566,49.176,14.217,99.374,7.879,149.197l-14.782,116.26c-0.529,4.166,2.418,7.972,6.584,8.502
			c0.325,0.042,0.649,0.062,0.968,0.062c3.773,0,7.045-2.805,7.534-6.646l14.782-116.258
			C248.467,337.466,245.721,285.452,233.736,234.499z"/>
	</g>
</g>
<g>
	<g>
		<path fill="white" d="M278.135,165.375c-4.072-1.019-8.202,1.456-9.223,5.53l-6.569,26.236c-1.152,4.595-5.145,4.952-6.342,4.952
			c-1.196,0-5.19-0.357-6.341-4.95l-6.57-26.239c-1.02-4.074-5.151-6.552-9.223-5.53c-4.074,1.02-6.549,5.149-5.53,9.223
			l6.57,26.241c2.468,9.847,10.945,16.462,21.092,16.462c10.148,0,18.626-6.615,21.094-16.463l6.57-26.239
			C284.685,170.524,282.209,166.395,278.135,165.375z"/>
	</g>
</g>
<g>
</g>
<g>
</g>
<g>
</g>
<g>
</g>
<g>
</g>
<g>
</g>
<g>
</g>
<g>
</g>
<g>
</g>
<g>
</g>
<g>
</g>
<g>
</g>
<g>
</g>
<g>
</g>
<g>
</g>
</svg>
